<mxfile host="Electron" agent="Mozilla/5.0 (Windows NT 10.0; Win64; x64) AppleWebKit/537.36 (KHTML, like Gecko) draw.io/24.7.17 Chrome/128.0.6613.36 Electron/32.0.1 Safari/537.36" version="24.7.17">
  <diagram name="第 1 页" id="gQKwrbpdDcLALgzKd0WU">
    <mxGraphModel dx="7687" dy="453" grid="1" gridSize="10" guides="1" tooltips="1" connect="1" arrows="1" fold="1" page="1" pageScale="1" pageWidth="827" pageHeight="1169" math="0" shadow="0">
      <root>
        <mxCell id="0" />
        <mxCell id="1" parent="0" />
        <mxCell id="V7nIqocJNu07dlvDADYR-212" value="" style="rounded=0;whiteSpace=wrap;html=1;fillStyle=dashed;dashed=1;dashPattern=8 8;" parent="1" vertex="1">
          <mxGeometry x="200" y="4440" width="801.05" height="840" as="geometry" />
        </mxCell>
        <mxCell id="V7nIqocJNu07dlvDADYR-193" value="" style="rounded=0;whiteSpace=wrap;html=1;fillStyle=dashed;dashed=1;dashPattern=8 8;" parent="1" vertex="1">
          <mxGeometry x="198.95" y="4200" width="801.05" height="200" as="geometry" />
        </mxCell>
        <mxCell id="V7nIqocJNu07dlvDADYR-194" value="" style="rounded=0;whiteSpace=wrap;html=1;fillStyle=dashed;dashed=1;dashPattern=8 8;" parent="1" vertex="1">
          <mxGeometry x="-121.15" y="3960" width="240.1" height="800" as="geometry" />
        </mxCell>
        <mxCell id="V7nIqocJNu07dlvDADYR-183" style="edgeStyle=orthogonalEdgeStyle;rounded=0;orthogonalLoop=1;jettySize=auto;html=1;" parent="1" source="V7nIqocJNu07dlvDADYR-163" target="V7nIqocJNu07dlvDADYR-164" edge="1">
          <mxGeometry relative="1" as="geometry" />
        </mxCell>
        <mxCell id="V7nIqocJNu07dlvDADYR-163" value="环境变量检查" style="rounded=0;whiteSpace=wrap;html=1;fontSize=15;" parent="1" vertex="1">
          <mxGeometry x="-80.04999999999995" y="4040" width="160" height="80" as="geometry" />
        </mxCell>
        <mxCell id="V7nIqocJNu07dlvDADYR-184" style="edgeStyle=orthogonalEdgeStyle;rounded=0;orthogonalLoop=1;jettySize=auto;html=1;" parent="1" source="V7nIqocJNu07dlvDADYR-164" target="V7nIqocJNu07dlvDADYR-165" edge="1">
          <mxGeometry relative="1" as="geometry" />
        </mxCell>
        <mxCell id="V7nIqocJNu07dlvDADYR-164" value="初始化" style="rounded=0;whiteSpace=wrap;html=1;fontSize=15;" parent="1" vertex="1">
          <mxGeometry x="-80.04999999999995" y="4160" width="160" height="80" as="geometry" />
        </mxCell>
        <mxCell id="V7nIqocJNu07dlvDADYR-176" style="edgeStyle=orthogonalEdgeStyle;rounded=0;orthogonalLoop=1;jettySize=auto;html=1;entryX=0;entryY=0.5;entryDx=0;entryDy=0;dashed=1;strokeColor=#001DBC;strokeWidth=3;align=center;verticalAlign=middle;fontFamily=Helvetica;fontSize=11;fontColor=default;labelBackgroundColor=default;endArrow=classic;fillColor=#0050ef;" parent="1" source="V7nIqocJNu07dlvDADYR-165" target="V7nIqocJNu07dlvDADYR-169" edge="1">
          <mxGeometry relative="1" as="geometry" />
        </mxCell>
        <mxCell id="V7nIqocJNu07dlvDADYR-185" style="edgeStyle=orthogonalEdgeStyle;rounded=0;orthogonalLoop=1;jettySize=auto;html=1;entryX=0.5;entryY=0;entryDx=0;entryDy=0;" parent="1" source="V7nIqocJNu07dlvDADYR-165" target="V7nIqocJNu07dlvDADYR-166" edge="1">
          <mxGeometry relative="1" as="geometry" />
        </mxCell>
        <mxCell id="V7nIqocJNu07dlvDADYR-165" value="获取目标系统已存在rpm源码包" style="rounded=0;whiteSpace=wrap;html=1;fontSize=15;" parent="1" vertex="1">
          <mxGeometry x="-80.04999999999995" y="4280" width="160" height="80" as="geometry" />
        </mxCell>
        <mxCell id="V7nIqocJNu07dlvDADYR-186" style="edgeStyle=orthogonalEdgeStyle;rounded=0;orthogonalLoop=1;jettySize=auto;html=1;entryX=0.5;entryY=0;entryDx=0;entryDy=0;" parent="1" source="V7nIqocJNu07dlvDADYR-166" target="V7nIqocJNu07dlvDADYR-167" edge="1">
          <mxGeometry relative="1" as="geometry" />
        </mxCell>
        <mxCell id="V7nIqocJNu07dlvDADYR-189" style="edgeStyle=orthogonalEdgeStyle;rounded=0;orthogonalLoop=1;jettySize=auto;html=1;entryX=0;entryY=0.5;entryDx=0;entryDy=0;dashed=1;strokeColor=#001DBC;strokeWidth=3;align=center;verticalAlign=middle;fontFamily=Helvetica;fontSize=11;fontColor=default;labelBackgroundColor=default;endArrow=classic;fillColor=#0050ef;" parent="1" source="V7nIqocJNu07dlvDADYR-166" target="V7nIqocJNu07dlvDADYR-170" edge="1">
          <mxGeometry relative="1" as="geometry" />
        </mxCell>
        <mxCell id="V7nIqocJNu07dlvDADYR-166" value="源系统1 rpm包更新监控" style="rounded=0;whiteSpace=wrap;html=1;fontSize=15;" parent="1" vertex="1">
          <mxGeometry x="-80.04999999999995" y="4400" width="160" height="80" as="geometry" />
        </mxCell>
        <mxCell id="V7nIqocJNu07dlvDADYR-187" style="edgeStyle=orthogonalEdgeStyle;rounded=0;orthogonalLoop=1;jettySize=auto;html=1;entryX=0.5;entryY=0;entryDx=0;entryDy=0;" parent="1" source="V7nIqocJNu07dlvDADYR-167" target="V7nIqocJNu07dlvDADYR-168" edge="1">
          <mxGeometry relative="1" as="geometry" />
        </mxCell>
        <mxCell id="V7nIqocJNu07dlvDADYR-188" style="edgeStyle=orthogonalEdgeStyle;rounded=0;orthogonalLoop=1;jettySize=auto;html=1;entryX=0;entryY=0.5;entryDx=0;entryDy=0;dashed=1;strokeColor=#001DBC;strokeWidth=3;align=center;verticalAlign=middle;fontFamily=Helvetica;fontSize=11;fontColor=default;labelBackgroundColor=default;endArrow=classic;fillColor=#0050ef;" parent="1" source="V7nIqocJNu07dlvDADYR-167" target="V7nIqocJNu07dlvDADYR-170" edge="1">
          <mxGeometry relative="1" as="geometry" />
        </mxCell>
        <mxCell id="V7nIqocJNu07dlvDADYR-167" value="......" style="rounded=0;whiteSpace=wrap;html=1;fontSize=15;fontStyle=1" parent="1" vertex="1">
          <mxGeometry x="-81.04999999999995" y="4520" width="160" height="80" as="geometry" />
        </mxCell>
        <mxCell id="V7nIqocJNu07dlvDADYR-190" style="edgeStyle=orthogonalEdgeStyle;rounded=0;orthogonalLoop=1;jettySize=auto;html=1;entryX=0;entryY=0.5;entryDx=0;entryDy=0;dashed=1;strokeColor=#001DBC;strokeWidth=3;align=center;verticalAlign=middle;fontFamily=Helvetica;fontSize=11;fontColor=default;labelBackgroundColor=default;endArrow=classic;fillColor=#0050ef;" parent="1" source="V7nIqocJNu07dlvDADYR-168" target="V7nIqocJNu07dlvDADYR-170" edge="1">
          <mxGeometry relative="1" as="geometry" />
        </mxCell>
        <mxCell id="V7nIqocJNu07dlvDADYR-168" value="源系统n rpm包更新监控" style="rounded=0;whiteSpace=wrap;html=1;fontSize=15;" parent="1" vertex="1">
          <mxGeometry x="-80.04999999999995" y="4640" width="160" height="80" as="geometry" />
        </mxCell>
        <mxCell id="V7nIqocJNu07dlvDADYR-169" value="根据源码包元数据信息文件列表，解析出已存在源码包" style="rounded=0;whiteSpace=wrap;html=1;fontSize=15;" parent="1" vertex="1">
          <mxGeometry x="238.95000000000005" y="4280" width="160" height="80" as="geometry" />
        </mxCell>
        <mxCell id="V7nIqocJNu07dlvDADYR-177" style="edgeStyle=orthogonalEdgeStyle;rounded=0;orthogonalLoop=1;jettySize=auto;html=1;entryX=0.5;entryY=0;entryDx=0;entryDy=0;" parent="1" source="V7nIqocJNu07dlvDADYR-170" target="V7nIqocJNu07dlvDADYR-171" edge="1">
          <mxGeometry relative="1" as="geometry" />
        </mxCell>
        <mxCell id="V7nIqocJNu07dlvDADYR-170" value="根据源码包元数据信息文件列表，解析出所有源码包" style="rounded=0;whiteSpace=wrap;html=1;fontSize=15;" parent="1" vertex="1">
          <mxGeometry x="240.00000000000006" y="4520" width="160" height="80" as="geometry" />
        </mxCell>
        <mxCell id="V7nIqocJNu07dlvDADYR-178" style="edgeStyle=orthogonalEdgeStyle;rounded=0;orthogonalLoop=1;jettySize=auto;html=1;entryX=0.5;entryY=0;entryDx=0;entryDy=0;" parent="1" source="V7nIqocJNu07dlvDADYR-171" target="V7nIqocJNu07dlvDADYR-172" edge="1">
          <mxGeometry relative="1" as="geometry" />
        </mxCell>
        <mxCell id="V7nIqocJNu07dlvDADYR-171" value="根据历史源码包列表，过滤出更新的源码包列表" style="rounded=0;whiteSpace=wrap;html=1;fontSize=15;" parent="1" vertex="1">
          <mxGeometry x="240.05000000000007" y="4640" width="160" height="80" as="geometry" />
        </mxCell>
        <mxCell id="V7nIqocJNu07dlvDADYR-179" style="edgeStyle=orthogonalEdgeStyle;rounded=0;orthogonalLoop=1;jettySize=auto;html=1;entryX=0.5;entryY=0;entryDx=0;entryDy=0;" parent="1" source="V7nIqocJNu07dlvDADYR-172" target="V7nIqocJNu07dlvDADYR-173" edge="1">
          <mxGeometry relative="1" as="geometry" />
        </mxCell>
        <mxCell id="V7nIqocJNu07dlvDADYR-172" value="根据包名、版本，过滤目标系统已经存在的源码包" style="rounded=0;whiteSpace=wrap;html=1;fontSize=15;" parent="1" vertex="1">
          <mxGeometry x="240.00000000000006" y="4760" width="160" height="80" as="geometry" />
        </mxCell>
        <mxCell id="V7nIqocJNu07dlvDADYR-180" style="edgeStyle=orthogonalEdgeStyle;rounded=0;orthogonalLoop=1;jettySize=auto;html=1;entryX=0.5;entryY=0;entryDx=0;entryDy=0;fontSize=15;" parent="1" source="V7nIqocJNu07dlvDADYR-173" target="V7nIqocJNu07dlvDADYR-174" edge="1">
          <mxGeometry relative="1" as="geometry" />
        </mxCell>
        <mxCell id="V7nIqocJNu07dlvDADYR-211" value="否" style="edgeLabel;html=1;align=center;verticalAlign=middle;resizable=0;points=[];fontSize=15;" parent="V7nIqocJNu07dlvDADYR-180" vertex="1" connectable="0">
          <mxGeometry x="-0.0639" y="3" relative="1" as="geometry">
            <mxPoint as="offset" />
          </mxGeometry>
        </mxCell>
        <mxCell id="V7nIqocJNu07dlvDADYR-181" style="edgeStyle=orthogonalEdgeStyle;rounded=0;orthogonalLoop=1;jettySize=auto;html=1;entryX=0.5;entryY=0;entryDx=0;entryDy=0;fontSize=15;" parent="1" source="V7nIqocJNu07dlvDADYR-173" target="V7nIqocJNu07dlvDADYR-175" edge="1">
          <mxGeometry relative="1" as="geometry" />
        </mxCell>
        <mxCell id="V7nIqocJNu07dlvDADYR-209" value="是" style="edgeLabel;html=1;align=center;verticalAlign=middle;resizable=0;points=[];fontSize=15;" parent="V7nIqocJNu07dlvDADYR-181" vertex="1" connectable="0">
          <mxGeometry x="-0.2909" y="-2" relative="1" as="geometry">
            <mxPoint as="offset" />
          </mxGeometry>
        </mxCell>
        <mxCell id="V7nIqocJNu07dlvDADYR-173" value="源系统历史清单存在" style="rhombus;whiteSpace=wrap;html=1;fontSize=15;" parent="1" vertex="1">
          <mxGeometry x="240" y="4880" width="160" height="80" as="geometry" />
        </mxCell>
        <mxCell id="V7nIqocJNu07dlvDADYR-205" style="edgeStyle=orthogonalEdgeStyle;rounded=0;orthogonalLoop=1;jettySize=auto;html=1;entryX=0.5;entryY=1;entryDx=0;entryDy=0;exitX=0.5;exitY=1;exitDx=0;exitDy=0;dashed=1;strokeColor=#001DBC;strokeWidth=3;align=center;verticalAlign=middle;fontFamily=Helvetica;fontSize=11;fontColor=default;labelBackgroundColor=default;endArrow=classic;fillColor=#0050ef;" parent="1" source="V7nIqocJNu07dlvDADYR-174" target="V7nIqocJNu07dlvDADYR-204" edge="1">
          <mxGeometry relative="1" as="geometry">
            <Array as="points">
              <mxPoint x="321" y="5240" />
              <mxPoint x="820" y="5240" />
            </Array>
          </mxGeometry>
        </mxCell>
        <mxCell id="V7nIqocJNu07dlvDADYR-174" value="将update清单追加到源系统历史清单中" style="rounded=0;whiteSpace=wrap;html=1;fontSize=15;" parent="1" vertex="1">
          <mxGeometry x="241.00000000000006" y="5120" width="160" height="80" as="geometry" />
        </mxCell>
        <mxCell id="V7nIqocJNu07dlvDADYR-182" style="edgeStyle=orthogonalEdgeStyle;rounded=0;orthogonalLoop=1;jettySize=auto;html=1;entryX=1;entryY=0.5;entryDx=0;entryDy=0;exitX=0.5;exitY=1;exitDx=0;exitDy=0;fontSize=15;" parent="1" source="V7nIqocJNu07dlvDADYR-175" target="V7nIqocJNu07dlvDADYR-174" edge="1">
          <mxGeometry relative="1" as="geometry" />
        </mxCell>
        <mxCell id="V7nIqocJNu07dlvDADYR-175" value="根据所需架构，批量提交迁移任务" style="rounded=0;whiteSpace=wrap;html=1;fontSize=15;" parent="1" vertex="1">
          <mxGeometry x="441.05" y="5000" width="160" height="80" as="geometry" />
        </mxCell>
        <mxCell id="V7nIqocJNu07dlvDADYR-191" value="调用" style="text;html=1;align=center;verticalAlign=middle;resizable=0;points=[];autosize=1;strokeColor=none;fillColor=none;fontSize=16;fontStyle=1" parent="1" vertex="1">
          <mxGeometry x="118.95" y="4285" width="60" height="30" as="geometry" />
        </mxCell>
        <mxCell id="V7nIqocJNu07dlvDADYR-192" value="调用" style="text;html=1;align=center;verticalAlign=middle;resizable=0;points=[];autosize=1;strokeColor=none;fillColor=none;fontSize=16;fontStyle=1" parent="1" vertex="1">
          <mxGeometry x="79.95" y="4520" width="60" height="30" as="geometry" />
        </mxCell>
        <mxCell id="V7nIqocJNu07dlvDADYR-197" style="edgeStyle=orthogonalEdgeStyle;rounded=0;orthogonalLoop=1;jettySize=auto;html=1;entryX=0;entryY=0.5;entryDx=0;entryDy=0;dashed=1;strokeColor=#001DBC;strokeWidth=3;align=center;verticalAlign=middle;fontFamily=Helvetica;fontSize=11;fontColor=default;labelBackgroundColor=default;endArrow=classic;fillColor=#0050ef;exitX=1;exitY=0.5;exitDx=0;exitDy=0;" parent="1" source="V7nIqocJNu07dlvDADYR-169" target="V7nIqocJNu07dlvDADYR-199" edge="1">
          <mxGeometry relative="1" as="geometry">
            <mxPoint x="495" y="4320" as="sourcePoint" />
          </mxGeometry>
        </mxCell>
        <mxCell id="V7nIqocJNu07dlvDADYR-202" style="edgeStyle=orthogonalEdgeStyle;rounded=0;orthogonalLoop=1;jettySize=auto;html=1;entryX=1;entryY=0.5;entryDx=0;entryDy=0;exitX=0.5;exitY=1;exitDx=0;exitDy=0;dashed=1;strokeColor=#C73500;strokeWidth=3;align=center;verticalAlign=middle;fontFamily=Helvetica;fontSize=11;fontColor=default;labelBackgroundColor=default;endArrow=classic;fillColor=#fa6800;" parent="1" source="V7nIqocJNu07dlvDADYR-199" target="V7nIqocJNu07dlvDADYR-172" edge="1">
          <mxGeometry relative="1" as="geometry" />
        </mxCell>
        <mxCell id="V7nIqocJNu07dlvDADYR-199" value="目标系统存在清单" style="rounded=0;whiteSpace=wrap;html=1;fontSize=15;" parent="1" vertex="1">
          <mxGeometry x="481.00000000000006" y="4300" width="159" height="40" as="geometry" />
        </mxCell>
        <mxCell id="V7nIqocJNu07dlvDADYR-200" value="输出" style="text;html=1;align=center;verticalAlign=middle;resizable=0;points=[];autosize=1;strokeColor=none;fillColor=none;fontSize=16;fontStyle=1" parent="1" vertex="1">
          <mxGeometry x="400.00000000000006" y="4290" width="60" height="30" as="geometry" />
        </mxCell>
        <mxCell id="V7nIqocJNu07dlvDADYR-201" value="&lt;h1 style=&quot;margin-top: 0px;&quot;&gt;目标系统存在清单文件&lt;/h1&gt;&lt;p style=&quot;line-height: 40%;&quot;&gt;文件名称：install_list_目标系统名称_目标系统版本&lt;/p&gt;&lt;p style=&quot;line-height: 40%;&quot;&gt;文件内容：&lt;/p&gt;&lt;p style=&quot;line-height: 40%;&quot;&gt;&lt;span style=&quot;white-space: pre;&quot;&gt;&#x9;&lt;/span&gt;源码包repo_addr 源码包名称 源码包版本&lt;br&gt;&lt;/p&gt;" style="text;html=1;whiteSpace=wrap;overflow=hidden;rounded=0;" parent="1" vertex="1">
          <mxGeometry x="680" y="4240" width="280" height="110" as="geometry" />
        </mxCell>
        <mxCell id="V7nIqocJNu07dlvDADYR-206" style="edgeStyle=orthogonalEdgeStyle;rounded=0;orthogonalLoop=1;jettySize=auto;html=1;entryX=1;entryY=0.5;entryDx=0;entryDy=0;exitX=0.5;exitY=0;exitDx=0;exitDy=0;dashed=1;strokeColor=#C73500;strokeWidth=3;align=center;verticalAlign=middle;fontFamily=Helvetica;fontSize=11;fontColor=default;labelBackgroundColor=default;endArrow=classic;fillColor=#fa6800;" parent="1" source="V7nIqocJNu07dlvDADYR-204" target="V7nIqocJNu07dlvDADYR-171" edge="1">
          <mxGeometry relative="1" as="geometry" />
        </mxCell>
        <mxCell id="V7nIqocJNu07dlvDADYR-204" value="&lt;h1 style=&quot;margin-top: 0px;&quot;&gt;源系统历史清单文件&lt;/h1&gt;&lt;p style=&quot;line-height: 40%;&quot;&gt;文件名称：&lt;/p&gt;&lt;p style=&quot;line-height: 40%;&quot;&gt;&lt;span style=&quot;white-space: pre;&quot;&gt;&#x9;&lt;/span&gt;rpm_src_history_list_源系统名称_源系统版本&lt;/p&gt;&lt;p style=&quot;line-height: 40%;&quot;&gt;文件内容：&lt;/p&gt;&lt;p style=&quot;line-height: 40%;&quot;&gt;&lt;span style=&quot;white-space: pre;&quot;&gt;&#x9;&lt;/span&gt;源码包repo_addr 源码包名称 源码包版本&lt;br&gt;&lt;/p&gt;" style="text;html=1;whiteSpace=wrap;overflow=hidden;rounded=0;" parent="1" vertex="1">
          <mxGeometry x="680" y="5000" width="280" height="120" as="geometry" />
        </mxCell>
        <mxCell id="V7nIqocJNu07dlvDADYR-207" value="过滤" style="text;html=1;align=center;verticalAlign=middle;resizable=0;points=[];autosize=1;strokeColor=none;fillColor=none;fontSize=16;fontStyle=1" parent="1" vertex="1">
          <mxGeometry x="450" y="4760" width="60" height="30" as="geometry" />
        </mxCell>
        <mxCell id="V7nIqocJNu07dlvDADYR-208" value="过滤" style="text;html=1;align=center;verticalAlign=middle;resizable=0;points=[];autosize=1;strokeColor=none;fillColor=none;fontSize=16;fontStyle=1" parent="1" vertex="1">
          <mxGeometry x="449.95000000000005" y="4646" width="60" height="30" as="geometry" />
        </mxCell>
        <mxCell id="V7nIqocJNu07dlvDADYR-213" value="获取目标系统已存在源码包清单脚本" style="text;html=1;align=center;verticalAlign=middle;whiteSpace=wrap;rounded=0;fontSize=16;fontColor=#f20202;" parent="1" vertex="1">
          <mxGeometry x="200" y="4200" width="270" height="30" as="geometry" />
        </mxCell>
        <mxCell id="V7nIqocJNu07dlvDADYR-214" value="调度脚本" style="text;html=1;align=center;verticalAlign=middle;whiteSpace=wrap;rounded=0;fontSize=16;fontColor=#f20202;" parent="1" vertex="1">
          <mxGeometry x="-110" y="3970" width="100" height="30" as="geometry" />
        </mxCell>
        <mxCell id="V7nIqocJNu07dlvDADYR-215" value="源系统update源监控脚本" style="text;html=1;align=center;verticalAlign=middle;whiteSpace=wrap;rounded=0;fontSize=16;fontColor=#f20202;" parent="1" vertex="1">
          <mxGeometry x="209" y="4450" width="181" height="30" as="geometry" />
        </mxCell>
        <mxCell id="V7nIqocJNu07dlvDADYR-216" value="" style="rounded=0;whiteSpace=wrap;html=1;fillStyle=dashed;strokeWidth=2;" parent="1" vertex="1">
          <mxGeometry x="-160" y="3880" width="1200" height="1440" as="geometry" />
        </mxCell>
        <mxCell id="V7nIqocJNu07dlvDADYR-217" value="update源监控代码逻辑" style="text;html=1;align=center;verticalAlign=middle;whiteSpace=wrap;rounded=0;fontSize=26;fontColor=#0d0d0d;fontStyle=1" parent="1" vertex="1">
          <mxGeometry x="238.95" y="3900" width="420" height="30" as="geometry" />
        </mxCell>
      </root>
    </mxGraphModel>
  </diagram>
</mxfile>
